<?xml version="1.0" standalone="no"?>
<!DOCTYPE svg PUBLIC "-//W3C//DTD SVG 20010904//EN"
 "http://www.w3.org/TR/2001/REC-SVG-20010904/DTD/svg10.dtd">
<svg version="1.0" xmlns="http://www.w3.org/2000/svg"
 width="1000.000000pt" height="1000.000000pt" viewBox="0 0 1000.000000 1000.000000"
 preserveAspectRatio="xMidYMid meet">
<metadata>
Created by potrace 1.11, written by Peter Selinger 2001-2013
</metadata>
<g transform="translate(0.000000,1000.000000) scale(0.100000,-0.100000)"
fill="#000000" stroke="none">
<path d="M930 4760 l0 -2800 1670 0 1670 0 0 510 0 510 -1040 0 -1040 0 0
2290 0 2290 -630 0 -630 0 0 -2800z"/>
<path d="M5020 4761 l0 -2801 630 0 630 0 0 1076 0 1075 223 -3 c199 -3 228
-6 280 -25 219 -82 393 -291 747 -898 18 -32 448 -743 516 -855 22 -37 43 -73
47 -80 4 -8 44 -76 90 -150 l83 -135 723 -3 c577 -2 722 0 718 10 -2 7 -70
116 -151 242 -80 125 -146 230 -146 232 0 3 -5 10 -10 17 -12 14 -39 55 -275
427 -92 146 -187 294 -210 330 -96 149 -228 356 -239 375 -6 11 -13 22 -16 25
-3 3 -27 39 -54 80 -241 369 -530 659 -742 745 -30 12 -55 26 -55 31 0 5 37
21 83 36 354 119 674 335 850 576 23 31 44 59 48 62 12 10 69 107 103 175 79
157 134 332 153 490 15 122 8 505 -10 534 -2 3 -7 27 -11 51 -20 144 -95 332
-190 480 -42 66 -193 229 -265 285 -41 33 -181 120 -239 150 -140 70 -411 158
-556 180 -22 3 -47 7 -55 10 -14 4 -66 12 -122 20 -14 2 -61 7 -103 10 -42 4
-86 9 -98 12 -12 4 -552 8 -1199 10 l-1178 4 0 -2800z m2060 1834 c327 -50
517 -182 603 -420 33 -92 38 -127 43 -270 5 -168 -23 -289 -97 -422 -76 -137
-215 -265 -362 -333 -165 -76 -259 -89 -667 -90 l-320 0 0 775 0 776 358 -2
c231 -1 387 -6 442 -14z"/>
</g>
</svg>
